<?xml version="1.0" standalone="no"?>
<!DOCTYPE svg PUBLIC "-//W3C//DTD SVG 20010904//EN"
 "http://www.w3.org/TR/2001/REC-SVG-20010904/DTD/svg10.dtd">
<svg version="1.0" xmlns="http://www.w3.org/2000/svg"
 width="750.000000pt" height="482.000000pt" viewBox="0 0 750.000000 482.000000"
 preserveAspectRatio="xMidYMid meet">

<g transform="translate(0.000000,482.000000) scale(0.100000,-0.100000)"
fill="#000000" stroke="none">
<path d="M325 4750 c-56 -27 -82 -52 -105 -102 -19 -42 -20 -78 -20 -2223 0
-2117 1 -2181 19 -2222 22 -48 69 -93 114 -110 24 -9 852 -12 3418 -12 l3385
-1 50 25 c52 26 88 70 104 126 15 51 13 4342 -1 4394 -15 52 -82 119 -134 134
-29 8 -973 11 -3415 11 -3309 0 -3376 -1 -3415 -20z m1980 -1861 l202 -72 42
-164 43 -164 -53 -87 c-48 -80 -61 -93 -151 -156 -54 -38 -98 -73 -98 -78 0
-4 17 -41 37 -81 21 -39 39 -75 41 -79 2 -5 -23 -8 -55 -8 -57 0 -60 2 -148
71 -49 39 -94 77 -98 85 -7 12 -11 12 -32 -2 -24 -16 -26 -14 -125 70 l-101
86 -107 1 -107 0 -79 101 -78 100 17 92 17 91 72 74 c58 60 88 81 164 118 83
40 106 46 210 58 179 19 171 20 387 -56z m676 -289 c35 -55 67 -100 70 -100 4
0 36 45 70 100 62 98 65 100 101 100 21 0 38 -5 38 -11 0 -13 -200 -319 -209
-319 -3 0 -33 41 -65 91 -32 49 -62 91 -65 93 -3 2 -7 -62 -7 -142 l-1 -147
-37 -3 -36 -3 0 220 0 221 39 0 c39 0 40 -1 102 -100z m659 -107 c41 -113 77
-213 78 -220 3 -11 -6 -13 -38 -11 -48 3 -38 -16 -135 253 -29 83 -57 158 -60
168 -6 15 -1 17 36 17 l44 0 75 -207z m520 172 l0 -35 -78 0 c-61 0 -87 -5
-122 -22 -74 -39 -101 -124 -61 -198 24 -45 67 -70 135 -77 l55 -6 3 34 c3 30
7 34 36 37 l32 3 0 -70 0 -71 -78 0 c-92 0 -156 17 -205 55 -111 84 -99 278
22 348 46 27 83 35 179 36 l82 1 0 -35z m182 -121 l3 -156 33 -29 c25 -22 32
-37 32 -64 l0 -35 -37 15 c-89 38 -103 72 -104 258 0 78 0 148 0 155 1 7 15
12 35 12 l35 0 3 -156z m286 -1 c-4 -168 -11 -195 -60 -239 -12 -12 -38 -26
-55 -32 -33 -11 -33 -11 -33 23 0 24 9 42 35 68 l35 35 0 151 0 151 41 0 41 0
-4 -157z m452 122 l0 -35 -65 0 c-79 0 -122 -16 -159 -61 -26 -30 -28 -39 -24
-96 6 -98 46 -130 173 -135 l70 -3 3 -37 3 -38 -64 0 c-120 0 -208 42 -246
119 -48 94 -31 193 44 259 55 49 89 60 188 61 l77 1 0 -35z m190 -185 l0 -220
-40 0 -40 0 0 220 0 220 40 0 40 0 0 -220z m285 0 l0 -215 -37 -3 -38 -3 0 90
0 90 -67 3 -68 3 0 35 0 35 68 3 67 3 0 90 0 90 38 -3 37 -3 0 -215z m255 187
c0 -28 -7 -38 -37 -58 -52 -33 -75 -81 -70 -142 5 -56 30 -96 75 -117 27 -13
32 -20 32 -53 0 -35 -2 -38 -22 -31 -102 31 -154 95 -165 199 -6 54 18 127 55
169 15 17 107 66 125 66 4 0 7 -15 7 -33z m106 18 c77 -32 117 -81 134 -162
24 -113 -40 -222 -150 -253 -29 -8 -30 -8 -30 28 0 32 5 39 33 52 35 17 77 87
77 130 0 43 -42 113 -77 130 -28 13 -33 20 -33 53 0 42 -1 42 46 22z m-2437
-183 c1 -7 -20 -64 -46 -127 l-46 -115 -39 0 c-21 0 -38 4 -38 9 0 9 117 297
127 315 7 10 41 -57 42 -82z m-209 -82 l0 -160 -40 0 -40 0 0 107 c0 106 0
107 37 160 20 29 38 53 40 53 1 0 3 -72 3 -160z m890 65 l0 -35 -80 0 -80 0 0
28 c0 16 3 32 7 35 3 4 39 7 80 7 l73 0 0 -35z"/>
<path d="M1935 2895 c-91 -10 -123 -19 -187 -49 -42 -21 -84 -46 -94 -57 -17
-19 -15 -19 119 -19 103 0 137 -3 137 -12 0 -7 13 1 28 19 26 31 30 32 102 31
41 0 89 2 105 6 40 8 57 -5 53 -40 l-3 -29 -106 4 c-105 3 -105 3 -123 -24
-15 -23 -16 -31 -6 -56 l12 -29 118 0 118 0 21 35 20 35 121 0 c121 0 121 0
114 23 -14 46 -26 53 -201 114 -192 67 -185 66 -348 48z"/>
<path d="M1542 2687 c-12 -13 -22 -31 -22 -40 0 -15 16 -17 149 -17 l149 0 41
-70 42 -70 147 0 148 0 17 -30 18 -30 127 0 127 0 23 36 24 37 -106 -5 c-112
-5 -126 -1 -126 39 0 27 -3 26 118 23 50 -1 92 2 92 7 0 4 -5 25 -11 46 l-10
37 -109 0 -110 0 -20 -40 -20 -40 -148 0 -147 0 -40 70 -40 70 -146 0 c-139 0
-146 -1 -167 -23z"/>
<path d="M1500 2547 c0 -22 64 -117 79 -117 4 0 15 14 24 30 10 17 26 30 35
30 9 0 33 3 54 6 30 5 38 3 47 -15 9 -15 9 -26 1 -42 -10 -17 -17 -19 -50 -14
-34 6 -41 3 -55 -19 -9 -14 -14 -30 -10 -36 4 -6 48 -10 109 -10 l104 0 86
-76 87 -76 40 28 c22 15 42 31 45 36 14 22 24 3 24 -44 l0 -53 75 -57 c41 -32
75 -55 75 -52 0 2 -14 32 -31 66 -24 48 -28 63 -17 69 7 4 63 42 123 86 l110
78 -130 3 -130 3 -17 29 c-17 30 -17 30 -113 30 -52 0 -95 -4 -95 -9 0 -22 31
-33 74 -27 39 6 46 4 56 -13 8 -15 8 -27 0 -41 -10 -19 -17 -20 -73 -14 -65 6
-77 14 -109 73 -10 17 -25 31 -36 31 -12 0 -31 23 -58 70 l-39 70 -142 0 -143
0 0 -23z"/>
</g>
</svg>
