<?xml version="1.0" standalone="no"?>
<!DOCTYPE svg PUBLIC "-//W3C//DTD SVG 20010904//EN"
 "http://www.w3.org/TR/2001/REC-SVG-20010904/DTD/svg10.dtd">
<svg version="1.0" xmlns="http://www.w3.org/2000/svg"
 width="1220.000000pt" height="640.000000pt" viewBox="0 0 1220.000000 640.000000"
 preserveAspectRatio="xMidYMid meet">

<g transform="translate(0.000000,640.000000) scale(0.100000,-0.100000)"
fill="#000000" stroke="none">
<path d="M3843 4213 c9 -2 25 -2 35 0 9 3 1 5 -18 5 -19 0 -27 -2 -17 -5z"/>
<path d="M3965 4155 c-5 -3 -82 -11 -170 -19 -154 -14 -163 -16 -243 -55 -45
-23 -85 -41 -89 -41 -11 0 -73 -51 -73 -61 0 -5 71 -9 174 -9 130 0 176 -3
180 -12 5 -13 18 -2 42 39 9 15 30 19 130 25 65 4 135 8 153 10 29 2 38 -2 50
-23 13 -24 13 -29 -3 -54 -15 -23 -22 -26 -49 -20 -18 4 -76 9 -129 12 l-97 4
-24 -38 -25 -38 20 -38 19 -38 151 3 152 3 26 45 26 45 157 3 157 3 -6 27
c-12 52 -28 63 -139 102 -61 21 -168 59 -240 84 -71 25 -132 45 -135 45 -3 0
-9 -2 -15 -4z"/>
<path d="M4248 4133 c7 -3 16 -2 19 1 4 3 -2 6 -13 5 -11 0 -14 -3 -6 -6z"/>
<path d="M4281 4126 c10 -10 202 -77 207 -72 10 11 -11 24 -55 36 -26 6 -52
15 -58 20 -12 9 -103 25 -94 16z"/>
<path d="M3355 4080 c-3 -6 1 -7 9 -4 18 7 21 14 7 14 -6 0 -13 -4 -16 -10z"/>
<path d="M3289 4027 c-33 -29 -67 -77 -55 -77 3 0 30 25 60 55 58 59 55 75 -5
22z"/>
<path d="M3257 3862 c-15 -15 -27 -38 -27 -50 0 -21 2 -22 196 -24 l197 -3 51
-85 51 -85 196 -3 196 -2 22 -40 22 -40 169 0 169 0 25 43 26 42 -103 3 c-65
2 -110 -2 -124 -9 -32 -17 -73 11 -73 51 0 16 6 32 13 37 6 4 70 6 140 4 l129
-3 -7 34 c-18 83 -8 78 -165 78 l-140 0 -31 -50 -31 -50 -191 0 -192 0 -51 88
-50 87 -195 3 -195 2 -27 -28z"/>
<path d="M5853 3883 c9 -2 23 -2 30 0 6 3 -1 5 -18 5 -16 0 -22 -2 -12 -5z"/>
<path d="M3208 3685 c-3 -13 2 -35 11 -48 72 -108 85 -119 106 -90 37 53 50
61 110 67 68 7 81 2 90 -36 8 -33 -27 -74 -53 -62 -47 20 -67 15 -90 -20 -13
-19 -21 -40 -17 -45 4 -7 58 -11 143 -11 l138 0 69 -61 c39 -34 86 -76 105
-93 56 -51 56 -51 120 -2 33 25 64 46 70 46 5 0 10 -32 12 -72 l3 -71 89 -68
c50 -38 92 -67 93 -65 2 2 -12 35 -32 74 -19 39 -35 75 -35 81 0 6 12 18 28
28 15 10 32 22 39 28 6 5 41 30 78 55 36 25 90 63 118 85 l51 40 -169 3 -170
3 -23 39 -23 40 -124 0 c-69 0 -125 -3 -125 -8 0 -4 7 -18 16 -31 13 -18 23
-22 45 -17 16 3 42 9 58 12 24 5 32 1 46 -20 15 -22 16 -30 5 -57 -12 -28 -16
-30 -49 -24 -20 3 -59 9 -88 11 -52 6 -52 6 -88 69 -28 51 -41 64 -63 67 -23
2 -35 17 -76 91 l-48 87 -183 0 -183 0 -4 -25z"/>
<path d="M6472 3610 c0 -14 2 -19 5 -12 2 6 2 18 0 25 -3 6 -5 1 -5 -13z"/>
<path d="M3606 3356 c10 -8 21 -12 24 -10 5 6 -21 24 -34 24 -6 0 -1 -6 10
-14z"/>
</g>
</svg>
