<?xml version="1.0" standalone="no"?>
<!DOCTYPE svg PUBLIC "-//W3C//DTD SVG 20010904//EN"
 "http://www.w3.org/TR/2001/REC-SVG-20010904/DTD/svg10.dtd">
<svg version="1.0" xmlns="http://www.w3.org/2000/svg"
 width="1220.000000pt" height="640.000000pt" viewBox="0 0 1220.000000 640.000000"
 preserveAspectRatio="xMidYMid meet">

<g transform="translate(0.000000,640.000000) scale(0.100000,-0.100000)"
fill="#000000" stroke="none">
<path d="M5116 4879 c-38 -5 -109 -23 -159 -40 -286 -95 -495 -326 -573 -629
-18 -71 -19 -122 -19 -1065 l0 -990 23 -85 c90 -340 360 -591 695 -645 139
-23 1911 -22 2040 1 334 58 599 306 689 644 l23 85 0 995 0 995 -22 81 c-47
171 -119 293 -243 414 -133 130 -313 216 -500 239 -104 13 -1852 13 -1954 0z
m1457 -1046 c183 -64 335 -119 340 -123 4 -3 38 -127 77 -274 57 -220 67 -273
58 -290 -6 -11 -47 -78 -90 -148 l-78 -126 -161 -112 c-88 -61 -163 -118 -166
-125 -3 -8 4 -29 15 -47 30 -50 122 -225 122 -232 0 -3 -42 -6 -94 -6 l-93 0
-154 121 c-84 66 -158 132 -164 145 l-10 26 -39 -31 c-46 -37 -26 -48 -221
122 l-146 127 -172 0 c-95 0 -177 4 -184 8 -7 4 -71 82 -143 172 -117 149
-129 168 -124 195 4 16 17 85 29 154 l23 124 126 126 126 126 149 68 149 69
213 22 c118 13 229 24 247 25 20 0 168 -46 365 -116z"/>
<path d="M6140 3858 c-47 -5 -146 -15 -220 -22 l-135 -14 -137 -67 c-83 -40
-146 -77 -159 -93 l-21 -27 226 -5 c187 -4 228 -8 236 -20 11 -17 9 -18 51 47
l20 32 152 4 c84 3 168 8 187 12 46 9 73 -18 68 -66 -4 -47 -43 -68 -91 -51
-19 7 -83 12 -149 12 l-116 0 -31 -39 c-17 -21 -31 -45 -31 -52 0 -7 11 -32
26 -56 l25 -43 191 2 192 3 31 53 c17 29 38 57 46 63 7 5 98 9 202 9 103 0
187 3 186 8 0 4 -8 29 -17 56 l-17 50 -305 107 c-168 60 -309 108 -315 107 -5
0 -48 -5 -95 -10z"/>
<path d="M5318 3503 c-30 -33 -48 -65 -48 -87 0 -14 32 -16 252 -18 l253 -3
56 -97 c30 -53 61 -104 68 -112 12 -14 48 -16 257 -16 l243 0 27 -50 27 -50
218 0 218 0 30 54 c17 29 31 56 31 60 0 11 -265 7 -277 -5 -19 -19 -76 -6 -92
22 -33 58 18 114 83 91 35 -13 266 -17 266 -4 -1 4 -9 36 -19 72 l-18 65 -183
0 -183 0 -37 -60 -37 -60 -241 -3 -241 -2 -14 22 c-8 13 -38 65 -68 116 l-53
92 -246 0 -246 0 -26 -27z"/>
<path d="M5244 3265 c-6 -31 0 -42 57 -119 35 -47 67 -85 70 -86 3 0 21 22 40
50 29 43 39 50 67 50 18 0 49 7 69 15 30 13 43 13 65 4 50 -20 52 -95 4 -118
-25 -12 -33 -11 -62 3 -19 8 -39 13 -46 10 -15 -6 -68 -80 -68 -94 0 -23 48
-30 202 -30 l163 0 143 -125 c79 -69 147 -125 150 -125 4 0 42 27 85 60 43 33
82 58 88 55 5 -4 9 -45 9 -93 l1 -87 121 -92 c67 -51 123 -91 125 -89 2 2 -19
46 -47 98 -27 52 -50 101 -49 109 0 8 75 66 166 129 183 126 223 157 223 171
0 5 -90 9 -209 9 l-209 0 -31 50 -31 50 -159 0 -160 0 11 -31 c14 -41 49 -57
91 -40 61 25 75 24 101 -2 32 -32 33 -66 5 -96 -17 -18 -28 -22 -53 -16 -17 4
-62 10 -101 13 l-70 7 -46 80 c-40 72 -49 81 -79 85 -32 5 -39 13 -99 118
l-64 112 -233 0 -233 0 -7 -35z"/>
</g>
</svg>
